<?xml version="1.0" standalone="no"?><!DOCTYPE svg PUBLIC "-//W3C//DTD SVG 1.1//EN" "http://www.w3.org/Graphics/SVG/1.1/DTD/svg11.dtd"><svg t="1590816060567" class="icon" viewBox="0 0 1024 1024" version="1.1" xmlns="http://www.w3.org/2000/svg" p-id="4399" xmlns:xlink="http://www.w3.org/1999/xlink" width="200" height="200"><defs><style type="text/css"></style></defs><path d="M36.72 537.86a315.66 315.49 0 1 0 631.32 0 315.66 315.49 0 1 0-631.32 0Z" fill="#FFE3E2" p-id="4400"></path><path d="M845.67 877.75H313.19a123 123 0 0 1-122.87-122.88V652.46h41v102.4a82 82 0 0 0 81.92 81.92h532.43a82 82 0 0 0 81.92-81.92v-102.4h41v102.4a123 123 0 0 1-122.92 122.89z" fill="#FF6767" p-id="4401"></path><path d="M846.69 775.35H312.17a122 122 0 0 1-121.85-121.86V252.06A122 122 0 0 1 312.17 130.2h534.52a122 122 0 0 1 121.86 121.86v401.43a122 122 0 0 1-121.86 121.86zM312.17 171.16a81 81 0 0 0-80.9 80.9v401.43a81 81 0 0 0 80.9 80.9h534.52a81 81 0 0 0 80.9-80.9V252.06a81 81 0 0 0-80.9-80.9z" fill="#FF6767" p-id="4402"></path><path d="M448 478.94L315.12 362.26 327 347c27.49-35.18 64-64.36 105.51-84.39a323 323 0 0 1 139.54-31.52 319.09 319.09 0 0 1 135.78 29.73c40.53 18.88 76.57 46.52 104.24 79.92l12.69 15.32-131.51 115.55-12.93-19.68a122.12 122.12 0 0 0-44.87-40.41A135.47 135.47 0 0 0 572.08 396c-46.92 0-89.68 23.52-111.58 61.38z m-76.2-121.42l67.23 59c31.29-38.45 80.27-61.55 133-61.55a176.58 176.58 0 0 1 82.58 20.33 165.64 165.64 0 0 1 45.62 35.58l67-58.8A262.28 262.28 0 0 0 690.56 298a278.43 278.43 0 0 0-118.48-25.9 281.79 281.79 0 0 0-121.75 27.45 260.67 260.67 0 0 0-78.53 57.97z" fill="#FF6767" p-id="4403"></path><path d="M572.08 296.65a22.54 22.54 0 0 1 22.54 22.54v45a22.54 22.54 0 0 1-22.54 22.54 22.54 22.54 0 0 1-22.54-22.54v-45a22.54 22.54 0 0 1 22.54-22.54z" fill="#FF6767" p-id="4404"></path></svg>