<?xml version="1.0" standalone="no"?><!DOCTYPE svg PUBLIC "-//W3C//DTD SVG 1.1//EN" "http://www.w3.org/Graphics/SVG/1.1/DTD/svg11.dtd"><svg t="1590816077289" class="icon" viewBox="0 0 1024 1024" version="1.1" xmlns="http://www.w3.org/2000/svg" p-id="4540" xmlns:xlink="http://www.w3.org/1999/xlink" width="200" height="200"><defs><style type="text/css"></style></defs><path d="M0 512a512 512 0 1 0 1024 0A512 512 0 1 0 0 512z" fill="#FF8810" p-id="4541"></path><path d="M318.217 284.986a74.768 74.768 0 1 0 74.768 74.768 74.407 74.407 0 0 0-74.768-74.768z m0 106.554a31.786 31.786 0 1 1 31.785-31.786 31.244 31.244 0 0 1-31.785 31.786z m453.846 100.955c-24.922-122.988-108.36-186.74-228.277-175.723-124.614 12.461-159.109 105.29-160.554 109.443v1.264c-26.186 96.26 40.094 141.23 78.922 168.5a150.259 150.259 0 0 1 25.465 19.685 60.681 60.681 0 0 1 6.863 56.708 197.576 197.576 0 0 0-4.154 30.522 95.718 95.718 0 0 0 33.411 81.63 127.323 127.323 0 0 0 83.618 28.174c9.752 0 16.615-1.444 23.658-1.444 147.911-32.328 159.108-228.82 141.048-318.759zM422.061 309.91a23.478 23.478 0 0 0 18.06 9.752 26.187 26.187 0 0 0 11.198-2.89 20.227 20.227 0 0 0 5.418-28.895l-26.187-40.274a20.95 20.95 0 0 0-34.856 23.297z m74.588-31.786a22.214 22.214 0 0 0 20.769 16.616h4.154a20.588 20.588 0 0 0 15.35-24.923l-9.752-40.093a20.588 20.588 0 1 0-40.093 9.572z m96.982 15.17h5.418a21.853 21.853 0 0 0 20.769-16.614l9.752-40.093a20.588 20.588 0 1 0-40.093-9.753l-9.752 40.274a19.505 19.505 0 0 0 13.906 26.187z m74.588 15.171a21.491 21.491 0 0 0 12.461 4.154 19.505 19.505 0 0 0 16.615-8.308l22.214-31.785a20.95 20.95 0 0 0-34.675-23.478L662.8 280.832a18.963 18.963 0 0 0 5.418 27.632z" fill="#FFFFFF" p-id="4542"></path></svg>