<?xml version="1.0" encoding="utf-8"?>
<!-- Generator: Adobe Illustrator 19.0.0, SVG Export Plug-In . SVG Version: 6.00 Build 0)  -->
<svg version="1.1" id="图层_1" xmlns="http://www.w3.org/2000/svg" xmlns:xlink="http://www.w3.org/1999/xlink" x="0px" y="0px"
	 viewBox="-379 181 200 200" style="enable-background:new -379 181 200 200;" xml:space="preserve">
<path d="M-335.2,273.2c-2.5-1.1-0.7-4.6,1.6-3.7c17.8,6.6,28.7,21.2,35.6,27.1c1.1,0.9,2.7,0.6,3.4-0.7c3.3-6.3,8.9-22.2-11.2-32.9
	c-17.1-9.1-36.7-10.5-48.3-16.1c-2.8-1.4-6.1,0.9-5.8,4c1,13.6,5.6,24.4,12.2,35.4c13.1,22.3,27.5,26,42.3,20.3
	c0.4-0.2,0.9-0.4,1.4-0.6c1.4-0.7,1.6-2.5,0.5-3.5C-303.6,302.6-312.5,289.1-335.2,273.2L-335.2,273.2z"/>
<path d="M-323.8,347c15.5-26.8,33.7-51.4,75.3-78.4c1.9-1.3,0.4-4.2-1.7-3.4c-31.5,12-44.8,30-55.8,40.9c-1.7,1.7-4.6,1.2-5.7-0.9
	c-5.3-10.1-13.6-34,19-51.4c28.8-15.4,62.5-17.9,83.9-18.2c3.7-0.1,6.2,3.8,4.6,7.1c-6,12.5-10.1,31.6-20.4,49.1
	c-21.3,36.2-47.7,38.9-71.8,29.7c-1.7-0.7-3.7,0-4.7,1.5c-3.2,4.9-9.8,15.6-11.5,23.9C-314.9,358.1-328.7,355.6-323.8,347z"/>
<path d="M-305.8,263c-5.9,5.5-8.9,11.3-10.2,16.8c7.9,6.3,13.7,13.2,18,16.8c0.2,0.2,0.5,0.3,0.8,0.4c1.3-1.3,2.6-2.7,4-4
	C-290.3,285.5-288.3,272.3-305.8,263z M-316.7,288.1c0.3,7.1,2.9,13.2,5,17.2c1.1,2.1,4,2.6,5.7,0.9c1-1,2-2,2.9-3
	c-0.1-0.2-0.3-0.4-0.4-0.5C-303.6,302.6-307.5,296.7-316.7,288.1L-316.7,288.1z"/>
</svg>
