<?xml version="1.0" encoding="utf-8"?>
<!-- Generator: Adobe Illustrator 19.0.0, SVG Export Plug-In . SVG Version: 6.00 Build 0)  -->
<svg version="1.1" id="图层_1" xmlns="http://www.w3.org/2000/svg" xmlns:xlink="http://www.w3.org/1999/xlink" x="0px" y="0px"
	 viewBox="544 -744 2048 2048" style="enable-background:new 544 -744 2048 2048;" xml:space="preserve">
<style type="text/css">
	.st0{fill:#fdffe8;}
	.st1{fill:#d9ebfe;}
	.st2{fill:#fcfb95;}
	.st3{fill:none;}
</style>
<g id="Layer_x0020_1">
	<path class="st0" d="M1568-488c212,0,404,86,543,225s225,331,225,543s-86,404-225,543s-331,225-543,225s-404-86-543-225
		S800,492,800,280s86-404,225-543S1356-488,1568-488z M2066-218c-127-127-303-206-498-206c-194,0-370,79-498,206
		C943-91,864,85,864,280c0,194,79,370,206,498c127,127,303,206,498,206c194,0,370-79,498-206c127-127,206-303,206-498
		C2272,86,2193-90,2066-218z"/>
</g>
<g id="Layer_x0020_1_0">
	<path class="st1" d="M1778,647c-39,19-79,31-119,34c32-143,71-304,185-424c-121,89-203,212-248,411c-1,3-1,6-1,8c-11-2-21-5-32-9
		l-14-5l-5-14c-45-125-14-273,60-392c29-47,65-90,105-125c41-36,87-64,135-82c87-32,183-28,274,28l21,13l-7,23c-1,5-3,9-4,14
		c-27,93-68,233-146,339c-54,73-127,141-206,179L1778,647z"/>
	<path class="st2" d="M1227,91c101,39,190,74,295,210l10,13l-5,16c-5,15-3,8-4,12c-10,30-21,63-28,102c-132-61-280-134-373-270
		c61,137,164,243,349,329c5,3,11,3,17,3c-1,31,1,66,7,105l6,35l-35,3c-63,5-124-6-180-28c-78-31-146-86-197-154
		c-50-68-82-150-89-237c-5-62,4-127,30-191l14-34l31,18c55,32,104,51,151,69L1227,91z"/>
	<rect x="544" y="-744" class="st3" width="2048" height="2048"/>
</g>
</svg>
